<?xml version="1.0" encoding="UTF-8" standalone="no"?>

<svg
   width="1240"
   height="112"
   viewBox="0 0 328.08332 29.633333"
   version="1.1"
   id="svg5"
   xmlns="http://www.w3.org/2000/svg"
   xmlns:svg="http://www.w3.org/2000/svg">
  <defs
     id="defs2">
    <rect
       x="32"
       y="176"
       width="1216"
       height="512"
       id="rect1424" />
  </defs>
  <path
     style="display:inline;fill:none;fill-opacity:1;stroke:#ffffff;stroke-width:0.79375;stroke-dasharray:none;stroke-opacity:1"
     d="M 14.816666,5.2916672 V 16.933334"
     id="path3525" />
  <path
     style="display:inline;fill:none;fill-opacity:1;stroke:#ffffff;stroke-width:0.79375;stroke-dasharray:none;stroke-opacity:1"
     d="m 22.225,5.2916672 -5.291667,5.2916668 v 1.058334 L 22.225,16.933334"
     id="path4133" />
  <path
     style="display:inline;fill:none;fill-opacity:1;stroke:#ffffff;stroke-width:0.79375;stroke-dasharray:none;stroke-opacity:1"
     d="m 39.158333,7.4083339 -2.116667,-2.1166666 -4.233332,10e-8 -2.116666,2.1166666 1e-6,7.408333 2.116666,2.116667 h 4.233332 l 2.116667,-2.116667"
     id="path4143" />
  <path
     style="display:inline;fill:none;fill-opacity:1;stroke:#ffffff;stroke-width:0.79375;stroke-dasharray:none;stroke-opacity:1"
     d="m 42.333332,16.933334 1e-6,-9.5250001 M 44.45,5.2916673 h 2.116666 l 1.058333,-1e-7 2.116667,2.1166666 v 2.1166667 l -2.116667,2.1166675 h -3.175"
     id="path4145" />
  <path
     style="display:inline;fill:none;fill-opacity:1;stroke:#ffffff;stroke-width:0.79375;stroke-dasharray:none;stroke-opacity:1"
     d="m 52.916666,5.2916672 v 9.5250008 l 2.116667,2.116666 h 3.175 l 2.116667,-2.116666 -1e-6,-9.5250005"
     id="path4147" />
  <path
     style="display:inline;fill:none;fill-opacity:1;stroke:#ffffff;stroke-width:0.79375;stroke-dasharray:none;stroke-opacity:1"
     d="m 77.258336,7.408334 -2.116667,-2.1166666 -4.233332,1e-7 -2.116666,2.1166666 1e-6,7.4083329 2.116666,2.116667 h 4.233332 l 2.116667,-2.116667"
     id="path4149" />
  <path
     style="display:inline;fill:none;fill-opacity:1;stroke:#ffffff;stroke-width:0.79375;stroke-dasharray:none;stroke-opacity:1"
     d="M 80.433336,5.2916674 V 16.933334"
     id="path4151" />
  <path
     style="display:inline;fill:none;fill-opacity:1;stroke:#ffffff;stroke-width:0.79375;stroke-dasharray:none;stroke-opacity:1"
     d="M 91.016664,8.4666665 H 95.25 l 1.05834,1.0583333 v 7.4083332"
     id="path4155" />
  <path
     style="display:inline;fill:none;fill-opacity:1;stroke:#ffffff;stroke-width:0.79375;stroke-dasharray:none;stroke-opacity:1"
     d="m 94.19167,12.7 h -3.175006 l -1.05833,1.058333 V 15.875 l 1.05833,1.058333 h 2.116662"
     id="path4157" />
  <path
     style="display:inline;fill:none;fill-opacity:1;stroke:#ffffff;stroke-width:0.79375;stroke-dasharray:none;stroke-opacity:1"
     d="M 100.54167,5.2916665 V 16.933333"
     id="path4159" />
  <path
     style="display:inline;fill:none;fill-opacity:1;stroke:#ffffff;stroke-width:0.79375;stroke-dasharray:none;stroke-opacity:1"
     d="M 104.775,5.2916666 V 16.933333"
     id="path4161" />
  <path
     style="display:inline;fill:none;fill-opacity:1;stroke:#ffffff;stroke-width:0.79375;stroke-dasharray:none;stroke-opacity:1"
     d="m 118.53334,16.933333 v -6.35 l 2.11667,-2.1166664 h 2.11666 l 2.11667,2.1166664 v 6.35"
     id="path4165" />
  <path
     style="display:inline;fill:none;fill-opacity:1;stroke:#ffffff;stroke-width:0.79375;stroke-dasharray:none;stroke-opacity:1"
     d="m 132.29168,14.816667 h -2.11666 l -2.11667,-2.116666 -1e-5,-2.116668 2.11667,-2.1166664 h 1.05833 1.05833 m 2.11667,2.1166664 v 7.408333 l -2.11667,2.116667 h -2.11666 l -2.11667,-2.116667"
     id="path4167" />
  <path
     style="display:inline;fill:none;fill-opacity:1;stroke:#ffffff;stroke-width:0.79375;stroke-dasharray:none;stroke-opacity:1"
     d="m 139.70001,12.7 h 3.175 l 1.05833,-1.058333 V 9.5250001 l -1.05833,-1.0583333 -3.175,-1e-7 m -2.11667,2.1166663 V 12.7 14.816666 l 2.11667,2.116667 h 3.175"
     id="path4169" />
  <path
     style="display:inline;fill:none;fill-opacity:1;stroke:#ffffff;stroke-width:0.79375;stroke-dasharray:none;stroke-opacity:1"
     d="m 82.550002,10.583334 h 3.175002 l 1.058333,1.058334 v 5.291666"
     id="path4171" />
  <circle
     style="display:inline;fill:#ffffff;fill-opacity:1;stroke:none;stroke-width:0.79375;stroke-dasharray:none;stroke-opacity:1"
     id="circle4135"
     cx="14.816667"
     cy="5.291667"
     r="1.0583333" />
  <circle
     style="display:inline;fill:#ffffff;fill-opacity:1;stroke:none;stroke-width:0.79375;stroke-dasharray:none;stroke-opacity:1"
     id="circle4137"
     cx="22.225"
     cy="5.291667"
     r="1.0583333" />
  <circle
     style="display:inline;fill:#ffffff;fill-opacity:1;stroke:none;stroke-width:0.79375;stroke-dasharray:none;stroke-opacity:1"
     id="circle4139"
     cx="14.816667"
     cy="16.933332"
     r="1.0583333" />
  <circle
     style="display:inline;fill:#ffffff;fill-opacity:1;stroke:none;stroke-width:0.79375;stroke-dasharray:none;stroke-opacity:1"
     id="circle4141"
     cx="22.225"
     cy="16.933332"
     r="1.0583333" />
  <circle
     style="display:inline;fill:#ffffff;fill-opacity:1;stroke:none;stroke-width:0.79375;stroke-dasharray:none;stroke-opacity:1"
     id="circle4173"
     cx="39.158337"
     cy="7.4083338"
     r="1.0583333" />
  <circle
     style="display:inline;fill:#ffffff;fill-opacity:1;stroke:none;stroke-width:0.79375;stroke-dasharray:none;stroke-opacity:1"
     id="circle4175"
     cx="39.158337"
     cy="14.816668"
     r="1.0583333" />
  <circle
     style="display:inline;fill:#ffffff;fill-opacity:1;stroke:none;stroke-width:0.79375;stroke-dasharray:none;stroke-opacity:1"
     id="circle4177"
     cx="42.333336"
     cy="16.933332"
     r="1.0583333" />
  <circle
     style="display:inline;fill:#ffffff;fill-opacity:1;stroke:none;stroke-width:0.79375;stroke-dasharray:none;stroke-opacity:1"
     id="circle4179"
     cx="44.450005"
     cy="11.641667"
     r="1.0583333" />
  <circle
     style="display:inline;fill:#ffffff;fill-opacity:1;stroke:none;stroke-width:0.79375;stroke-dasharray:none;stroke-opacity:1"
     id="circle4181"
     cx="52.916672"
     cy="5.291667"
     r="1.0583333" />
  <circle
     style="display:inline;fill:#ffffff;fill-opacity:1;stroke:none;stroke-width:0.79375;stroke-dasharray:none;stroke-opacity:1"
     id="circle4183"
     cx="60.324997"
     cy="5.291667"
     r="1.0583333" />
  <circle
     style="display:inline;fill:#ffffff;fill-opacity:1;stroke:none;stroke-width:0.79375;stroke-dasharray:none;stroke-opacity:1"
     id="circle4185"
     cx="77.258339"
     cy="7.4083338"
     r="1.0583333" />
  <circle
     style="display:inline;fill:#ffffff;fill-opacity:1;stroke:none;stroke-width:0.79375;stroke-dasharray:none;stroke-opacity:1"
     id="circle4187"
     cx="77.258339"
     cy="14.816668"
     r="1.0583333" />
  <circle
     style="display:inline;fill:#ffffff;fill-opacity:1;stroke:none;stroke-width:0.79375;stroke-dasharray:none;stroke-opacity:1"
     id="circle4189"
     cx="80.433334"
     cy="5.291667"
     r="1.0583333" />
  <circle
     style="display:inline;fill:#ffffff;fill-opacity:1;stroke:none;stroke-width:0.79375;stroke-dasharray:none;stroke-opacity:1"
     id="circle4191"
     cx="80.433334"
     cy="16.933332"
     r="1.0583333" />
  <circle
     style="display:inline;fill:#ffffff;fill-opacity:1;stroke:none;stroke-width:0.79375;stroke-dasharray:none;stroke-opacity:1"
     id="circle4193"
     cx="82.550003"
     cy="10.583334"
     r="1.0583333" />
  <circle
     style="display:inline;fill:#ffffff;fill-opacity:1;stroke:none;stroke-width:0.79375;stroke-dasharray:none;stroke-opacity:1"
     id="circle4195"
     cx="86.78334"
     cy="16.933332"
     r="1.0583333" />
  <circle
     style="display:inline;fill:#ffffff;fill-opacity:1;stroke:none;stroke-width:0.79375;stroke-dasharray:none;stroke-opacity:1"
     id="circle4197"
     cx="94.191681"
     cy="12.7"
     r="1.0583333" />
  <circle
     style="display:inline;fill:#ffffff;fill-opacity:1;stroke:none;stroke-width:0.79375;stroke-dasharray:none;stroke-opacity:1"
     id="circle4199"
     cx="93.133324"
     cy="16.933332"
     r="1.0583333" />
  <circle
     style="display:inline;fill:#ffffff;fill-opacity:1;stroke:none;stroke-width:0.79375;stroke-dasharray:none;stroke-opacity:1"
     id="circle4201"
     cx="91.016663"
     cy="8.4666662"
     r="1.0583333" />
  <circle
     style="display:inline;fill:#ffffff;fill-opacity:1;stroke:none;stroke-width:0.79375;stroke-dasharray:none;stroke-opacity:1"
     id="circle4203"
     cx="96.308334"
     cy="16.933332"
     r="1.0583333" />
  <circle
     style="display:inline;fill:#ffffff;fill-opacity:1;stroke:none;stroke-width:0.79375;stroke-dasharray:none;stroke-opacity:1"
     id="circle4205"
     cx="100.54166"
     cy="5.291666"
     r="1.0583333" />
  <circle
     style="display:inline;fill:#ffffff;fill-opacity:1;stroke:none;stroke-width:0.79375;stroke-dasharray:none;stroke-opacity:1"
     id="circle4207"
     cx="104.77499"
     cy="5.291666"
     r="1.0583333" />
  <circle
     style="display:inline;fill:#ffffff;fill-opacity:1;stroke:none;stroke-width:0.79375;stroke-dasharray:none;stroke-opacity:1"
     id="circle4209"
     cx="104.77499"
     cy="16.933332"
     r="1.0583333" />
  <circle
     style="display:inline;fill:#ffffff;fill-opacity:1;stroke:none;stroke-width:0.79375;stroke-dasharray:none;stroke-opacity:1"
     id="circle4211"
     cx="100.54166"
     cy="16.933332"
     r="1.0583333" />
  <circle
     style="display:inline;fill:#ffffff;fill-opacity:1;stroke:none;stroke-width:0.79375;stroke-dasharray:none;stroke-opacity:1"
     id="circle4217"
     cx="118.53334"
     cy="16.933332"
     r="1.0583333" />
  <circle
     style="display:inline;fill:#ffffff;fill-opacity:1;stroke:none;stroke-width:0.79375;stroke-dasharray:none;stroke-opacity:1"
     id="circle4219"
     cx="124.88331"
     cy="16.933332"
     r="1.0583333" />
  <circle
     style="display:inline;fill:#ffffff;fill-opacity:1;stroke:none;stroke-width:0.79375;stroke-dasharray:none;stroke-opacity:1"
     id="circle4221"
     cx="128.0583"
     cy="17.991667"
     r="1.0583333" />
  <circle
     style="display:inline;fill:#ffffff;fill-opacity:1;stroke:none;stroke-width:0.79375;stroke-dasharray:none;stroke-opacity:1"
     id="circle4223"
     cx="132.29164"
     cy="14.816667"
     r="1.0583333" />
  <circle
     style="display:inline;fill:#ffffff;fill-opacity:1;stroke:none;stroke-width:0.79375;stroke-dasharray:none;stroke-opacity:1"
     id="circle4225"
     cx="139.69998"
     cy="12.7"
     r="1.0583333" />
  <circle
     style="display:inline;fill:#ffffff;fill-opacity:1;stroke:none;stroke-width:0.79375;stroke-dasharray:none;stroke-opacity:1"
     id="circle4227"
     cx="142.87497"
     cy="16.933332"
     r="1.0583333" />
  <circle
     style="display:inline;fill:#ffffff;fill-opacity:1;stroke:none;stroke-width:0.79375;stroke-dasharray:none;stroke-opacity:1"
     id="circle597"
     cx="137.58331"
     cy="10.583333"
     r="1.0583333" />
  <circle
     style="display:inline;fill:#ffffff;fill-opacity:1;stroke:none;stroke-width:0.79375;stroke-dasharray:none;stroke-opacity:1"
     id="circle599"
     cx="139.69998"
     cy="8.4666662"
     r="1.0583333" />
  <path
     style="display:inline;fill:none;fill-opacity:1;stroke:#ffffff;stroke-width:0.79375;stroke-dasharray:none;stroke-opacity:1"
     d="m 111.125,12.7 h 3.175 l 1.05833,-1.058333 V 9.5249996 L 114.3,8.4666667 l -3.175,-10e-8 m -2.11667,2.1166664 V 12.7 14.816666 l 2.11667,2.116667 h 3.175"
     id="path601" />
  <circle
     style="display:inline;fill:#ffffff;fill-opacity:1;stroke:none;stroke-width:0.79375;stroke-dasharray:none;stroke-opacity:1"
     id="circle603"
     cx="111.12502"
     cy="12.7"
     r="1.0583333" />
  <circle
     style="display:inline;fill:#ffffff;fill-opacity:1;stroke:none;stroke-width:0.79375;stroke-dasharray:none;stroke-opacity:1"
     id="circle605"
     cx="114.29998"
     cy="16.933332"
     r="1.0583333" />
  <circle
     style="display:inline;fill:#ffffff;fill-opacity:1;stroke:none;stroke-width:0.79375;stroke-dasharray:none;stroke-opacity:1"
     id="circle607"
     cx="109.00832"
     cy="10.583333"
     r="1.0583333" />
  <circle
     style="display:inline;fill:#ffffff;fill-opacity:1;stroke:none;stroke-width:0.79375;stroke-dasharray:none;stroke-opacity:1"
     id="circle609"
     cx="111.12502"
     cy="8.4666662"
     r="1.0583333" />
  <circle
     style="display:inline;fill:#ffffff;fill-opacity:1;stroke:none;stroke-width:0.79375;stroke-dasharray:none;stroke-opacity:1"
     id="circle611"
     cx="132.29164"
     cy="8.4666662"
     r="1.0583333" />
  <circle
     style="display:inline;fill:#ffffff;fill-opacity:1;stroke:none;stroke-width:0.79375;stroke-dasharray:none;stroke-opacity:1"
     id="circle613"
     cx="134.40831"
     cy="10.583333"
     r="1.0583333" />
  <circle
     style="display:inline;fill:#ffffff;fill-opacity:1;stroke:none;stroke-width:0.79375;stroke-dasharray:none;stroke-opacity:1"
     id="circle615"
     cx="44.450005"
     cy="5.291667"
     r="1.0583333" />
  <circle
     style="display:inline;fill:#ffffff;fill-opacity:1;stroke:none;stroke-width:0.79375;stroke-dasharray:none;stroke-opacity:1"
     id="circle617"
     cx="42.333336"
     cy="7.4083338"
     r="1.0583333" />
  <path
     style="display:inline;fill:none;fill-opacity:1;stroke:#ffffff;stroke-width:0.79375;stroke-dasharray:none;stroke-opacity:1"
     d="M 8.4666674,16.933334 V 5.2916673 M 6.3500014,13.758334 H 3.1750017 L 2.1166671,12.700001 V 11.641668 L 5.2916674,6.3500006"
     id="path619" />
  <circle
     style="display:inline;fill:#ffffff;fill-opacity:1;stroke:none;stroke-width:0.79375;stroke-dasharray:none;stroke-opacity:1"
     id="circle621"
     cx="6.3500013"
     cy="13.758334"
     r="1.0583333" />
  <circle
     style="display:inline;fill:#ffffff;fill-opacity:1;stroke:none;stroke-width:0.79375;stroke-dasharray:none;stroke-opacity:1"
     id="circle623"
     cx="10.583333"
     cy="13.758334"
     r="1.0583333" />
  <circle
     style="display:inline;fill:#ffffff;fill-opacity:1;stroke:none;stroke-width:0.79375;stroke-dasharray:none;stroke-opacity:1"
     id="circle625"
     cx="8.4666681"
     cy="16.933332"
     r="1.0583333" />
  <circle
     style="display:inline;fill:#ffffff;fill-opacity:1;stroke:none;stroke-width:0.79375;stroke-dasharray:none;stroke-opacity:1"
     id="circle627"
     cx="8.4666672"
     cy="5.291667"
     r="1.0583333" />
  <circle
     style="display:inline;fill:#ffffff;fill-opacity:1;stroke:none;stroke-width:0.79375;stroke-dasharray:none;stroke-opacity:1"
     id="circle629"
     cx="5.291667"
     cy="6.3500004"
     r="1.0583333" />
  <path
     style="display:inline;fill:none;stroke:#ffeeaa;stroke-width:0.529167;stroke-dasharray:none"
     d="m 8.4666674,23.283334 215.8999926,1e-6 L 234.95,12.700001 h 87.84167"
     id="path1185" />
  <path
     style="display:inline;fill:none;stroke:#ffeeaa;stroke-width:0.529167;stroke-dasharray:none"
     d="M 8.4666674,24.341668 H 231.775 l 5.29167,-5.291667 h 85.725"
     id="path1283" />
  <path
     style="display:inline;fill:none;stroke:#ffeeaa;stroke-width:0.529167;stroke-dasharray:none"
     d="M 8.4666674,25.400001 171.45,25.4 h 2.11667 l 149.225,1e-6"
     id="path1285" />
  <path
     id="path2333"
     style="display:inline;fill:#ffeeaa;fill-opacity:1;stroke:none;stroke-width:0.264583;stroke-dasharray:none"
     d="m 323.84999,4.2333339 a 2.1166666,2.1166666 0 0 0 -2.11666,2.1166667 2.1166666,2.1166666 0 0 0 2.11666,2.1166667 2.1166666,2.1166666 0 0 0 2.11667,-2.1166667 2.1166666,2.1166666 0 0 0 -2.11667,-2.1166667 z m 0,1.0583334 a 1.0583333,1.0583333 0 0 1 1.05834,1.0583333 1.0583333,1.0583333 0 0 1 -1.05834,1.0583333 1.0583333,1.0583333 0 0 1 -1.05833,-1.0583333 1.0583333,1.0583333 0 0 1 1.05833,-1.0583333 z" />
  <path
     id="path2341"
     style="display:inline;fill:#ffeeaa;fill-opacity:1;stroke:none;stroke-width:0.264583;stroke-dasharray:none"
     d="m 323.84999,10.583334 a 2.1166666,2.1166666 0 0 0 -2.11666,2.116667 2.1166666,2.1166666 0 0 0 2.11666,2.116667 2.1166666,2.1166666 0 0 0 2.11667,-2.116667 2.1166666,2.1166666 0 0 0 -2.11667,-2.116667 z m 0,1.058334 a 1.0583333,1.0583333 0 0 1 1.05834,1.058333 1.0583333,1.0583333 0 0 1 -1.05834,1.058333 1.0583333,1.0583333 0 0 1 -1.05833,-1.058333 1.0583333,1.0583333 0 0 1 1.05833,-1.058333 z" />
  <path
     id="path2343"
     style="display:inline;fill:#ffeeaa;fill-opacity:1;stroke:none;stroke-width:0.264583;stroke-dasharray:none"
     d="m 323.84999,16.933334 a 2.1166666,2.1166666 0 0 0 -2.11666,2.116667 2.1166666,2.1166666 0 0 0 2.11666,2.116667 2.1166666,2.1166666 0 0 0 2.11667,-2.116667 2.1166666,2.1166666 0 0 0 -2.11667,-2.116667 z m 0,1.058334 a 1.0583333,1.0583333 0 0 1 1.05834,1.058333 1.0583333,1.0583333 0 0 1 -1.05834,1.058333 1.0583333,1.0583333 0 0 1 -1.05833,-1.058333 1.0583333,1.0583333 0 0 1 1.05833,-1.058333 z" />
  <path
     id="path2345"
     style="display:inline;fill:#ffeeaa;fill-opacity:1;stroke:none;stroke-width:0.264583;stroke-dasharray:none"
     d="m 323.84999,23.283334 a 2.1166666,2.1166666 0 0 0 -2.11666,2.116667 2.1166666,2.1166666 0 0 0 2.11666,2.116667 2.1166666,2.1166666 0 0 0 2.11667,-2.116667 2.1166666,2.1166666 0 0 0 -2.11667,-2.116667 z m 0,1.058334 a 1.0583333,1.0583333 0 0 1 1.05834,1.058333 1.0583333,1.0583333 0 0 1 -1.05834,1.058333 1.0583333,1.0583333 0 0 1 -1.05833,-1.058333 1.0583333,1.0583333 0 0 1 1.05833,-1.058333 z" />
  <rect
     style="display:inline;fill:#ffeea8;fill-opacity:1;stroke:none;stroke-width:0.265;stroke-dasharray:none"
     id="rect5223"
     width="5.291667"
     height="5.2916675"
     x="2.1166666"
     y="21.166666" />
  <path
     style="display:inline;fill:#ffeeaa;fill-opacity:1;stroke:#ffeeaa;stroke-width:0.529167;stroke-dasharray:none;stroke-opacity:1"
     d="m 6.3500004,27.516668 v 1.058333"
     id="path1321" />
  <path
     style="display:inline;fill:#ffeeaa;fill-opacity:1;stroke:#ffeeaa;stroke-width:0.529167;stroke-dasharray:none;stroke-opacity:1"
     d="m 5.2916674,27.516668 v 1.058333"
     id="path2222" />
  <path
     style="display:inline;fill:#ffeeaa;fill-opacity:1;stroke:#ffeeaa;stroke-width:0.529167;stroke-dasharray:none;stroke-opacity:1"
     d="m 4.2333334,27.516668 v 1.058333"
     id="path2224" />
  <path
     style="display:inline;fill:#ffeeaa;fill-opacity:1;stroke:#ffeeaa;stroke-width:0.529167;stroke-dasharray:none;stroke-opacity:1"
     d="m 3.1750004,27.516668 v 1.058333"
     id="path2226" />
  <path
     style="display:inline;fill:#ffeeaa;fill-opacity:1;stroke:#ffeeaa;stroke-width:0.529167;stroke-dasharray:none;stroke-opacity:1"
     d="m 6.3500004,19.050001 v 1.058333"
     id="path2228" />
  <path
     style="display:inline;fill:#ffeeaa;fill-opacity:1;stroke:#ffeeaa;stroke-width:0.529167;stroke-dasharray:none;stroke-opacity:1"
     d="m 5.2916674,19.050001 v 1.058333"
     id="path2230" />
  <path
     style="display:inline;fill:#ffeeaa;fill-opacity:1;stroke:#ffeeaa;stroke-width:0.529167;stroke-dasharray:none;stroke-opacity:1"
     d="m 4.2333334,19.050001 v 1.058333"
     id="path2232" />
  <path
     style="display:inline;fill:#ffeeaa;fill-opacity:1;stroke:#ffeeaa;stroke-width:0.529167;stroke-dasharray:none;stroke-opacity:1"
     d="m 3.1750004,19.050001 v 1.058333"
     id="path2234" />
  <path
     style="display:inline;fill:#ffeeaa;fill-opacity:1;stroke:#ffeeaa;stroke-width:0.529167;stroke-dasharray:none;stroke-opacity:1"
     d="M 1.0583337,22.225001 H 4.4355992e-7"
     id="path2290" />
  <path
     style="display:inline;fill:#ffeeaa;fill-opacity:1;stroke:#ffeeaa;stroke-width:0.529167;stroke-dasharray:none;stroke-opacity:1"
     d="M 1.0583337,23.283334 H 4.4355992e-7"
     id="path2292" />
  <path
     style="display:inline;fill:#ffeeaa;fill-opacity:1;stroke:#ffeeaa;stroke-width:0.529167;stroke-dasharray:none;stroke-opacity:1"
     d="M 1.0583337,24.341667 4.4355992e-7,24.341668"
     id="path2294" />
  <path
     style="display:inline;fill:#ffeeaa;fill-opacity:1;stroke:#ffeeaa;stroke-width:0.529167;stroke-dasharray:none;stroke-opacity:1"
     d="M 1.0583337,25.400001 H 4.4355992e-7"
     id="path2296" />
  <path
     style="display:inline;fill:none;stroke:#ffeeaa;stroke-width:0.529167;stroke-dasharray:none"
     d="M 8.4666674,22.225001 216.95833,22.225 232.83333,6.3500006 h 89.95834"
     id="path1183" />
</svg>
